<?xml version="1.0" encoding="UTF-8"?>
<svg width="32" height="32" viewBox="0 0 32 32" xmlns="http://www.w3.org/2000/svg">
  <defs>
    <linearGradient id="bgGrad" x1="0%" y1="0%" x2="100%" y2="100%">
      <stop offset="0%" style="stop-color:#f0f0f0;stop-opacity:1" />
      <stop offset="100%" style="stop-color:#ffffff;stop-opacity:1" />
    </linearGradient>
  </defs>
  <!-- Rounded background -->
  <rect width="32" height="32" rx="6" fill="url(#bgGrad)"/>
  
  <!-- Simplified Arrotech logo icon -->
  <g transform="translate(16, 16) scale(0.018)">
    <path fill="rgb(202,164,249)" d="M 0 0 C -2.535 -11.777 -27.063 -17.319 -61.939 -15.993 C -58.629 -11.865 -55.367 -7.47 -52.229 -2.834 C -36.055 4.747 -21.992 11.37 -10.962 18.77 C -2.83 12.135 1.218 5.678 0 0 M -179.607 -15.993 C -214.484 -17.319 -239.012 -11.777 -241.547 0 C -242.765 5.678 -238.716 12.135 -230.585 18.77 C -219.555 11.37 -205.494 4.747 -190.604 -0.932 C -186.18 -7.47 -182.916 -11.865 -179.579 -15.993 z M -1.553 25.958 C 8.242 34.619 13.534 44.161 11.34 54.376 C 8.605 67.096 -4.265 74.094 -21.896 77.365 C -8.135 62.169 -1.274 57.848 -0.003 51.94 C 1.218 46.262 -2.859 39.802 -10.984 33.166 C -27.012 22.458 -52.993 10.323 -81.536 0.937 C -116.026 -7.769 -118.402 -8.242 -120.773 -8.714 C -125.519 -7.769 -127.917 -7.252 -127.917 -7.252 C -174.957 5.366 -220.277 25.976 -230.561 33.166 C -238.688 39.802 -242.764 46.262 -241.544 51.94 C -240.272 57.848 -233.413 62.169 -222.536 64.861 C -237.282 74.094 -250.152 67.096 -252.887 54.376 C -255.083 44.161 -249.789 34.619 -239.994 25.958 C -249.781 17.305 -255.083 7.771 -252.887 -2.439 C -247.924 -25.519 -209.595 -29.809 -169.959 -27.05 C -134.54 -65.093 -128.178 -61.86 -120.845 -66.235 C -113.411 -61.889 -107.708 -58.113 -84.764 -39.979 C -31.952 -29.809 6.377 -25.519 11.34 -2.439 C 13.537 7.771 8.233 17.305 -1.553 25.958"/>
    <path fill="rgb(147,69,242)" d="M 0 0 C 1.664 -4.443 3.561 -8.664 5.542 -12.793 C 19.508 -19.085 33.105 -24.042 48.051 -28.472 C 65.208 -29.062 75.848 -27.1 87.084 -24.67 C 115.575 -18.503 147.732 -9.347 175.587 4.057 C 183.009 35.868 183.554 40.967 183.554 40.967 C 179.801 44.697 176.316 47.654 174.185 49.334 C 169.886 52.46 164.56 55.965 160.034 58.699 C 152.825 62.658 144.611 66.67 142.934 67.438 C 127.557 73.727 106.561 80.54 98.193 82.779 C 90.256 84.73 87.288 85.389 87.152 85.42 C 87.016 85.451 86.879 85.389 78.249 83.35 C 65.063 79.817 51.564 75.497 42.708 72.239 C 37.293 70.068 25.154 64.578 18.563 61.176 C 10.77 56.685 3.427 51.855 0.33 49.594 C -4.444 45.744 -5.699 44.635 -9.386 40.967 C -8.426 30.405 -6.419 20.474 -3.679 11.113 C -2.569 7.314 -1.346 3.6 0 0" transform="translate(0, -54.712)"/>
  </g>
</svg>